<mxfile host="app.diagrams.net" modified="2024-05-07T06:55:09.113Z" agent="Mozilla/5.0 (Windows NT 10.0; Win64; x64) AppleWebKit/537.36 (KHTML, like Gecko) Chrome/124.0.0.0 Safari/537.36" etag="lWedbOtlVMnaseG6VyOt" version="24.3.1" type="device">
  <diagram name="Page-1" id="j_M1XANBzLwF1v1IQo93">
    <mxGraphModel dx="1744" dy="943" grid="1" gridSize="10" guides="1" tooltips="1" connect="1" arrows="1" fold="1" page="1" pageScale="1" pageWidth="850" pageHeight="1100" math="0" shadow="0">
      <root>
        <mxCell id="0" />
        <mxCell id="1" parent="0" />
        <mxCell id="m9OlPvplOpiL6TEW7GOy-1" value="" style="shape=table;startSize=0;container=1;collapsible=0;childLayout=tableLayout;fontSize=16;movable=0;resizable=0;rotatable=0;deletable=0;editable=0;locked=1;connectable=0;" vertex="1" parent="1">
          <mxGeometry x="240" y="160" width="100" height="100" as="geometry" />
        </mxCell>
        <mxCell id="m9OlPvplOpiL6TEW7GOy-2" value="" style="shape=tableRow;horizontal=0;startSize=0;swimlaneHead=0;swimlaneBody=0;strokeColor=inherit;top=0;left=0;bottom=0;right=0;collapsible=0;dropTarget=0;fillColor=none;points=[[0,0.5],[1,0.5]];portConstraint=eastwest;fontSize=16;movable=0;resizable=0;rotatable=0;deletable=0;editable=0;locked=1;connectable=0;" vertex="1" parent="m9OlPvplOpiL6TEW7GOy-1">
          <mxGeometry width="100" height="33" as="geometry" />
        </mxCell>
        <mxCell id="m9OlPvplOpiL6TEW7GOy-3" value="1" style="shape=partialRectangle;html=1;whiteSpace=wrap;connectable=0;strokeColor=inherit;overflow=hidden;fillColor=#7EA6E0;top=0;left=0;bottom=0;right=0;pointerEvents=1;fontSize=16;sketch=1;curveFitting=1;jiggle=2;movable=0;resizable=0;rotatable=0;deletable=0;editable=0;locked=1;" vertex="1" parent="m9OlPvplOpiL6TEW7GOy-2">
          <mxGeometry width="33" height="33" as="geometry">
            <mxRectangle width="33" height="33" as="alternateBounds" />
          </mxGeometry>
        </mxCell>
        <mxCell id="m9OlPvplOpiL6TEW7GOy-4" value="2" style="shape=partialRectangle;html=1;whiteSpace=wrap;connectable=0;strokeColor=inherit;overflow=hidden;fillColor=#7EA6E0;top=0;left=0;bottom=0;right=0;pointerEvents=1;fontSize=16;labelBorderColor=none;sketch=1;curveFitting=1;jiggle=2;movable=0;resizable=0;rotatable=0;deletable=0;editable=0;locked=1;" vertex="1" parent="m9OlPvplOpiL6TEW7GOy-2">
          <mxGeometry x="33" width="34" height="33" as="geometry">
            <mxRectangle width="34" height="33" as="alternateBounds" />
          </mxGeometry>
        </mxCell>
        <mxCell id="m9OlPvplOpiL6TEW7GOy-5" value="3" style="shape=partialRectangle;html=1;whiteSpace=wrap;connectable=0;strokeColor=inherit;overflow=hidden;fillColor=none;top=0;left=0;bottom=0;right=0;pointerEvents=1;fontSize=16;movable=0;resizable=0;rotatable=0;deletable=0;editable=0;locked=1;" vertex="1" parent="m9OlPvplOpiL6TEW7GOy-2">
          <mxGeometry x="67" width="33" height="33" as="geometry">
            <mxRectangle width="33" height="33" as="alternateBounds" />
          </mxGeometry>
        </mxCell>
        <mxCell id="m9OlPvplOpiL6TEW7GOy-6" value="" style="shape=tableRow;horizontal=0;startSize=0;swimlaneHead=0;swimlaneBody=0;strokeColor=inherit;top=0;left=0;bottom=0;right=0;collapsible=0;dropTarget=0;fillColor=none;points=[[0,0.5],[1,0.5]];portConstraint=eastwest;fontSize=16;movable=0;resizable=0;rotatable=0;deletable=0;editable=0;locked=1;connectable=0;" vertex="1" parent="m9OlPvplOpiL6TEW7GOy-1">
          <mxGeometry y="33" width="100" height="34" as="geometry" />
        </mxCell>
        <mxCell id="m9OlPvplOpiL6TEW7GOy-7" value="4" style="shape=partialRectangle;html=1;whiteSpace=wrap;connectable=0;strokeColor=inherit;overflow=hidden;fillColor=#7EA6E0;top=0;left=0;bottom=0;right=0;pointerEvents=1;fontSize=16;sketch=1;curveFitting=1;jiggle=2;movable=0;resizable=0;rotatable=0;deletable=0;editable=0;locked=1;" vertex="1" parent="m9OlPvplOpiL6TEW7GOy-6">
          <mxGeometry width="33" height="34" as="geometry">
            <mxRectangle width="33" height="34" as="alternateBounds" />
          </mxGeometry>
        </mxCell>
        <mxCell id="m9OlPvplOpiL6TEW7GOy-8" value="5" style="shape=partialRectangle;html=1;whiteSpace=wrap;connectable=0;strokeColor=inherit;overflow=hidden;fillColor=#7EA6E0;top=0;left=0;bottom=0;right=0;pointerEvents=1;fontSize=16;sketch=1;curveFitting=1;jiggle=2;movable=0;resizable=0;rotatable=0;deletable=0;editable=0;locked=1;" vertex="1" parent="m9OlPvplOpiL6TEW7GOy-6">
          <mxGeometry x="33" width="34" height="34" as="geometry">
            <mxRectangle width="34" height="34" as="alternateBounds" />
          </mxGeometry>
        </mxCell>
        <mxCell id="m9OlPvplOpiL6TEW7GOy-9" value="6" style="shape=partialRectangle;html=1;whiteSpace=wrap;connectable=0;strokeColor=inherit;overflow=hidden;fillColor=none;top=0;left=0;bottom=0;right=0;pointerEvents=1;fontSize=16;movable=0;resizable=0;rotatable=0;deletable=0;editable=0;locked=1;" vertex="1" parent="m9OlPvplOpiL6TEW7GOy-6">
          <mxGeometry x="67" width="33" height="34" as="geometry">
            <mxRectangle width="33" height="34" as="alternateBounds" />
          </mxGeometry>
        </mxCell>
        <mxCell id="m9OlPvplOpiL6TEW7GOy-10" value="" style="shape=tableRow;horizontal=0;startSize=0;swimlaneHead=0;swimlaneBody=0;strokeColor=inherit;top=0;left=0;bottom=0;right=0;collapsible=0;dropTarget=0;fillColor=none;points=[[0,0.5],[1,0.5]];portConstraint=eastwest;fontSize=16;movable=0;resizable=0;rotatable=0;deletable=0;editable=0;locked=1;connectable=0;" vertex="1" parent="m9OlPvplOpiL6TEW7GOy-1">
          <mxGeometry y="67" width="100" height="33" as="geometry" />
        </mxCell>
        <mxCell id="m9OlPvplOpiL6TEW7GOy-11" value="7" style="shape=partialRectangle;html=1;whiteSpace=wrap;connectable=0;strokeColor=inherit;overflow=hidden;fillColor=none;top=0;left=0;bottom=0;right=0;pointerEvents=1;fontSize=16;movable=0;resizable=0;rotatable=0;deletable=0;editable=0;locked=1;" vertex="1" parent="m9OlPvplOpiL6TEW7GOy-10">
          <mxGeometry width="33" height="33" as="geometry">
            <mxRectangle width="33" height="33" as="alternateBounds" />
          </mxGeometry>
        </mxCell>
        <mxCell id="m9OlPvplOpiL6TEW7GOy-12" value="8" style="shape=partialRectangle;html=1;whiteSpace=wrap;connectable=0;strokeColor=inherit;overflow=hidden;fillColor=none;top=0;left=0;bottom=0;right=0;pointerEvents=1;fontSize=16;movable=0;resizable=0;rotatable=0;deletable=0;editable=0;locked=1;" vertex="1" parent="m9OlPvplOpiL6TEW7GOy-10">
          <mxGeometry x="33" width="34" height="33" as="geometry">
            <mxRectangle width="34" height="33" as="alternateBounds" />
          </mxGeometry>
        </mxCell>
        <mxCell id="m9OlPvplOpiL6TEW7GOy-13" value="9" style="shape=partialRectangle;html=1;whiteSpace=wrap;connectable=0;strokeColor=inherit;overflow=hidden;fillColor=none;top=0;left=0;bottom=0;right=0;pointerEvents=1;fontSize=16;movable=0;resizable=0;rotatable=0;deletable=0;editable=0;locked=1;" vertex="1" parent="m9OlPvplOpiL6TEW7GOy-10">
          <mxGeometry x="67" width="33" height="33" as="geometry">
            <mxRectangle width="33" height="33" as="alternateBounds" />
          </mxGeometry>
        </mxCell>
        <mxCell id="m9OlPvplOpiL6TEW7GOy-70" value="&lt;font style=&quot;font-size: 29px;&quot;&gt;Ã—&lt;/font&gt;" style="text;html=1;align=center;verticalAlign=middle;whiteSpace=wrap;rounded=0;labelPosition=center;verticalLabelPosition=middle;" vertex="1" parent="1">
          <mxGeometry x="350" y="200" width="60" height="25" as="geometry" />
        </mxCell>
        <mxCell id="m9OlPvplOpiL6TEW7GOy-129" value="" style="shape=table;startSize=0;container=1;collapsible=0;childLayout=tableLayout;fontSize=16;movable=0;resizable=0;rotatable=0;deletable=0;editable=0;locked=1;connectable=0;" vertex="1" parent="1">
          <mxGeometry x="430" y="170" width="68" height="66" as="geometry" />
        </mxCell>
        <mxCell id="m9OlPvplOpiL6TEW7GOy-130" value="" style="shape=tableRow;horizontal=0;startSize=0;swimlaneHead=0;swimlaneBody=0;strokeColor=inherit;top=0;left=0;bottom=0;right=0;collapsible=0;dropTarget=0;fillColor=none;points=[[0,0.5],[1,0.5]];portConstraint=eastwest;fontSize=16;movable=0;resizable=0;rotatable=0;deletable=0;editable=0;locked=1;connectable=0;" vertex="1" parent="m9OlPvplOpiL6TEW7GOy-129">
          <mxGeometry width="68" height="33" as="geometry" />
        </mxCell>
        <mxCell id="m9OlPvplOpiL6TEW7GOy-131" value="1" style="shape=partialRectangle;html=1;whiteSpace=wrap;connectable=0;strokeColor=inherit;overflow=hidden;fillColor=#7EA6E0;top=0;left=0;bottom=0;right=0;pointerEvents=1;fontSize=16;sketch=1;curveFitting=1;jiggle=2;movable=0;resizable=0;rotatable=0;deletable=0;editable=0;locked=1;" vertex="1" parent="m9OlPvplOpiL6TEW7GOy-130">
          <mxGeometry width="34" height="33" as="geometry">
            <mxRectangle width="34" height="33" as="alternateBounds" />
          </mxGeometry>
        </mxCell>
        <mxCell id="m9OlPvplOpiL6TEW7GOy-132" value="2" style="shape=partialRectangle;html=1;whiteSpace=wrap;connectable=0;strokeColor=inherit;overflow=hidden;fillColor=#7EA6E0;top=0;left=0;bottom=0;right=0;pointerEvents=1;fontSize=16;sketch=1;curveFitting=1;jiggle=2;movable=0;resizable=0;rotatable=0;deletable=0;editable=0;locked=1;" vertex="1" parent="m9OlPvplOpiL6TEW7GOy-130">
          <mxGeometry x="34" width="34" height="33" as="geometry">
            <mxRectangle width="34" height="33" as="alternateBounds" />
          </mxGeometry>
        </mxCell>
        <mxCell id="m9OlPvplOpiL6TEW7GOy-134" value="" style="shape=tableRow;horizontal=0;startSize=0;swimlaneHead=0;swimlaneBody=0;strokeColor=inherit;top=0;left=0;bottom=0;right=0;collapsible=0;dropTarget=0;fillColor=none;points=[[0,0.5],[1,0.5]];portConstraint=eastwest;fontSize=16;movable=0;resizable=0;rotatable=0;deletable=0;editable=0;locked=1;connectable=0;" vertex="1" parent="m9OlPvplOpiL6TEW7GOy-129">
          <mxGeometry y="33" width="68" height="33" as="geometry" />
        </mxCell>
        <mxCell id="m9OlPvplOpiL6TEW7GOy-135" value="3" style="shape=partialRectangle;html=1;whiteSpace=wrap;connectable=0;strokeColor=inherit;overflow=hidden;fillColor=#7EA6E0;top=0;left=0;bottom=0;right=0;pointerEvents=1;fontSize=16;sketch=1;curveFitting=1;jiggle=2;movable=0;resizable=0;rotatable=0;deletable=0;editable=0;locked=1;" vertex="1" parent="m9OlPvplOpiL6TEW7GOy-134">
          <mxGeometry width="34" height="33" as="geometry">
            <mxRectangle width="34" height="33" as="alternateBounds" />
          </mxGeometry>
        </mxCell>
        <mxCell id="m9OlPvplOpiL6TEW7GOy-136" value="4" style="shape=partialRectangle;html=1;whiteSpace=wrap;connectable=0;strokeColor=inherit;overflow=hidden;fillColor=#7EA6E0;top=0;left=0;bottom=0;right=0;pointerEvents=1;fontSize=16;sketch=1;curveFitting=1;jiggle=2;movable=0;resizable=0;rotatable=0;deletable=0;editable=0;locked=1;" vertex="1" parent="m9OlPvplOpiL6TEW7GOy-134">
          <mxGeometry x="34" width="34" height="33" as="geometry">
            <mxRectangle width="34" height="33" as="alternateBounds" />
          </mxGeometry>
        </mxCell>
        <mxCell id="m9OlPvplOpiL6TEW7GOy-171" value="" style="shape=table;startSize=0;container=1;collapsible=0;childLayout=tableLayout;fontSize=16;movable=1;resizable=1;rotatable=1;deletable=1;editable=1;locked=0;connectable=1;" vertex="1" parent="1">
          <mxGeometry x="220" y="180" width="100" height="100" as="geometry" />
        </mxCell>
        <mxCell id="m9OlPvplOpiL6TEW7GOy-172" value="" style="shape=tableRow;horizontal=0;startSize=0;swimlaneHead=0;swimlaneBody=0;strokeColor=inherit;top=0;left=0;bottom=0;right=0;collapsible=0;dropTarget=0;fillColor=none;points=[[0,0.5],[1,0.5]];portConstraint=eastwest;fontSize=16;movable=1;resizable=1;rotatable=1;deletable=1;editable=1;locked=0;connectable=1;" vertex="1" parent="m9OlPvplOpiL6TEW7GOy-171">
          <mxGeometry width="100" height="33" as="geometry" />
        </mxCell>
        <mxCell id="m9OlPvplOpiL6TEW7GOy-173" value="0" style="shape=partialRectangle;html=1;whiteSpace=wrap;connectable=1;strokeColor=inherit;overflow=hidden;fillColor=#7EA6E0;top=0;left=0;bottom=0;right=0;pointerEvents=1;fontSize=16;sketch=1;curveFitting=1;jiggle=2;movable=1;resizable=1;rotatable=1;deletable=1;editable=1;locked=0;" vertex="1" parent="m9OlPvplOpiL6TEW7GOy-172">
          <mxGeometry width="33" height="33" as="geometry">
            <mxRectangle width="33" height="33" as="alternateBounds" />
          </mxGeometry>
        </mxCell>
        <mxCell id="m9OlPvplOpiL6TEW7GOy-174" value="1" style="shape=partialRectangle;html=1;whiteSpace=wrap;connectable=1;strokeColor=inherit;overflow=hidden;fillColor=#7EA6E0;top=0;left=0;bottom=0;right=0;pointerEvents=1;fontSize=16;labelBorderColor=none;sketch=1;curveFitting=1;jiggle=2;movable=1;resizable=1;rotatable=1;deletable=1;editable=1;locked=0;" vertex="1" parent="m9OlPvplOpiL6TEW7GOy-172">
          <mxGeometry x="33" width="34" height="33" as="geometry">
            <mxRectangle width="34" height="33" as="alternateBounds" />
          </mxGeometry>
        </mxCell>
        <mxCell id="m9OlPvplOpiL6TEW7GOy-175" value="2" style="shape=partialRectangle;html=1;whiteSpace=wrap;connectable=1;strokeColor=inherit;overflow=hidden;fillColor=none;top=0;left=0;bottom=0;right=0;pointerEvents=1;fontSize=16;movable=1;resizable=1;rotatable=1;deletable=1;editable=1;locked=0;" vertex="1" parent="m9OlPvplOpiL6TEW7GOy-172">
          <mxGeometry x="67" width="33" height="33" as="geometry">
            <mxRectangle width="33" height="33" as="alternateBounds" />
          </mxGeometry>
        </mxCell>
        <mxCell id="m9OlPvplOpiL6TEW7GOy-176" value="" style="shape=tableRow;horizontal=0;startSize=0;swimlaneHead=0;swimlaneBody=0;strokeColor=inherit;top=0;left=0;bottom=0;right=0;collapsible=0;dropTarget=0;fillColor=none;points=[[0,0.5],[1,0.5]];portConstraint=eastwest;fontSize=16;movable=1;resizable=1;rotatable=1;deletable=1;editable=1;locked=0;connectable=1;" vertex="1" parent="m9OlPvplOpiL6TEW7GOy-171">
          <mxGeometry y="33" width="100" height="34" as="geometry" />
        </mxCell>
        <mxCell id="m9OlPvplOpiL6TEW7GOy-177" value="3" style="shape=partialRectangle;html=1;whiteSpace=wrap;connectable=1;strokeColor=inherit;overflow=hidden;fillColor=#7EA6E0;top=0;left=0;bottom=0;right=0;pointerEvents=1;fontSize=16;sketch=1;curveFitting=1;jiggle=2;movable=1;resizable=1;rotatable=1;deletable=1;editable=1;locked=0;" vertex="1" parent="m9OlPvplOpiL6TEW7GOy-176">
          <mxGeometry width="33" height="34" as="geometry">
            <mxRectangle width="33" height="34" as="alternateBounds" />
          </mxGeometry>
        </mxCell>
        <mxCell id="m9OlPvplOpiL6TEW7GOy-178" value="4" style="shape=partialRectangle;html=1;whiteSpace=wrap;connectable=1;strokeColor=inherit;overflow=hidden;fillColor=#7EA6E0;top=0;left=0;bottom=0;right=0;pointerEvents=1;fontSize=16;sketch=1;curveFitting=1;jiggle=2;movable=1;resizable=1;rotatable=1;deletable=1;editable=1;locked=0;" vertex="1" parent="m9OlPvplOpiL6TEW7GOy-176">
          <mxGeometry x="33" width="34" height="34" as="geometry">
            <mxRectangle width="34" height="34" as="alternateBounds" />
          </mxGeometry>
        </mxCell>
        <mxCell id="m9OlPvplOpiL6TEW7GOy-179" value="5" style="shape=partialRectangle;html=1;whiteSpace=wrap;connectable=1;strokeColor=inherit;overflow=hidden;fillColor=none;top=0;left=0;bottom=0;right=0;pointerEvents=1;fontSize=16;movable=1;resizable=1;rotatable=1;deletable=1;editable=1;locked=0;" vertex="1" parent="m9OlPvplOpiL6TEW7GOy-176">
          <mxGeometry x="67" width="33" height="34" as="geometry">
            <mxRectangle width="33" height="34" as="alternateBounds" />
          </mxGeometry>
        </mxCell>
        <mxCell id="m9OlPvplOpiL6TEW7GOy-180" value="" style="shape=tableRow;horizontal=0;startSize=0;swimlaneHead=0;swimlaneBody=0;strokeColor=inherit;top=0;left=0;bottom=0;right=0;collapsible=0;dropTarget=0;fillColor=none;points=[[0,0.5],[1,0.5]];portConstraint=eastwest;fontSize=16;movable=1;resizable=1;rotatable=1;deletable=1;editable=1;locked=0;connectable=1;" vertex="1" parent="m9OlPvplOpiL6TEW7GOy-171">
          <mxGeometry y="67" width="100" height="33" as="geometry" />
        </mxCell>
        <mxCell id="m9OlPvplOpiL6TEW7GOy-181" value="6" style="shape=partialRectangle;html=1;whiteSpace=wrap;connectable=1;strokeColor=inherit;overflow=hidden;fillColor=none;top=0;left=0;bottom=0;right=0;pointerEvents=1;fontSize=16;movable=1;resizable=1;rotatable=1;deletable=1;editable=1;locked=0;" vertex="1" parent="m9OlPvplOpiL6TEW7GOy-180">
          <mxGeometry width="33" height="33" as="geometry">
            <mxRectangle width="33" height="33" as="alternateBounds" />
          </mxGeometry>
        </mxCell>
        <mxCell id="m9OlPvplOpiL6TEW7GOy-182" value="7" style="shape=partialRectangle;html=1;whiteSpace=wrap;connectable=1;strokeColor=inherit;overflow=hidden;fillColor=none;top=0;left=0;bottom=0;right=0;pointerEvents=1;fontSize=16;movable=1;resizable=1;rotatable=1;deletable=1;editable=1;locked=0;" vertex="1" parent="m9OlPvplOpiL6TEW7GOy-180">
          <mxGeometry x="33" width="34" height="33" as="geometry">
            <mxRectangle width="34" height="33" as="alternateBounds" />
          </mxGeometry>
        </mxCell>
        <mxCell id="m9OlPvplOpiL6TEW7GOy-183" value="8" style="shape=partialRectangle;html=1;whiteSpace=wrap;connectable=1;strokeColor=inherit;overflow=hidden;fillColor=none;top=0;left=0;bottom=0;right=0;pointerEvents=1;fontSize=16;movable=1;resizable=1;rotatable=1;deletable=1;editable=1;locked=0;" vertex="1" parent="m9OlPvplOpiL6TEW7GOy-180">
          <mxGeometry x="67" width="33" height="33" as="geometry">
            <mxRectangle width="33" height="33" as="alternateBounds" />
          </mxGeometry>
        </mxCell>
        <mxCell id="m9OlPvplOpiL6TEW7GOy-184" value="" style="shape=table;startSize=0;container=1;collapsible=0;childLayout=tableLayout;fontSize=16;" vertex="1" parent="1">
          <mxGeometry x="410" y="190" width="68" height="66" as="geometry" />
        </mxCell>
        <mxCell id="m9OlPvplOpiL6TEW7GOy-185" value="" style="shape=tableRow;horizontal=0;startSize=0;swimlaneHead=0;swimlaneBody=0;strokeColor=inherit;top=0;left=0;bottom=0;right=0;collapsible=0;dropTarget=0;fillColor=none;points=[[0,0.5],[1,0.5]];portConstraint=eastwest;fontSize=16;" vertex="1" parent="m9OlPvplOpiL6TEW7GOy-184">
          <mxGeometry width="68" height="33" as="geometry" />
        </mxCell>
        <mxCell id="m9OlPvplOpiL6TEW7GOy-186" value="0" style="shape=partialRectangle;html=1;whiteSpace=wrap;connectable=0;strokeColor=inherit;overflow=hidden;fillColor=#7EA6E0;top=0;left=0;bottom=0;right=0;pointerEvents=1;fontSize=16;sketch=1;curveFitting=1;jiggle=2;" vertex="1" parent="m9OlPvplOpiL6TEW7GOy-185">
          <mxGeometry width="34" height="33" as="geometry">
            <mxRectangle width="34" height="33" as="alternateBounds" />
          </mxGeometry>
        </mxCell>
        <mxCell id="m9OlPvplOpiL6TEW7GOy-187" value="1" style="shape=partialRectangle;html=1;whiteSpace=wrap;connectable=0;strokeColor=inherit;overflow=hidden;fillColor=#7EA6E0;top=0;left=0;bottom=0;right=0;pointerEvents=1;fontSize=16;sketch=1;curveFitting=1;jiggle=2;" vertex="1" parent="m9OlPvplOpiL6TEW7GOy-185">
          <mxGeometry x="34" width="34" height="33" as="geometry">
            <mxRectangle width="34" height="33" as="alternateBounds" />
          </mxGeometry>
        </mxCell>
        <mxCell id="m9OlPvplOpiL6TEW7GOy-188" value="" style="shape=tableRow;horizontal=0;startSize=0;swimlaneHead=0;swimlaneBody=0;strokeColor=inherit;top=0;left=0;bottom=0;right=0;collapsible=0;dropTarget=0;fillColor=none;points=[[0,0.5],[1,0.5]];portConstraint=eastwest;fontSize=16;" vertex="1" parent="m9OlPvplOpiL6TEW7GOy-184">
          <mxGeometry y="33" width="68" height="33" as="geometry" />
        </mxCell>
        <mxCell id="m9OlPvplOpiL6TEW7GOy-189" value="2" style="shape=partialRectangle;html=1;whiteSpace=wrap;connectable=0;strokeColor=inherit;overflow=hidden;fillColor=#7EA6E0;top=0;left=0;bottom=0;right=0;pointerEvents=1;fontSize=16;sketch=1;curveFitting=1;jiggle=2;" vertex="1" parent="m9OlPvplOpiL6TEW7GOy-188">
          <mxGeometry width="34" height="33" as="geometry">
            <mxRectangle width="34" height="33" as="alternateBounds" />
          </mxGeometry>
        </mxCell>
        <mxCell id="m9OlPvplOpiL6TEW7GOy-190" value="3" style="shape=partialRectangle;html=1;whiteSpace=wrap;connectable=0;strokeColor=inherit;overflow=hidden;fillColor=#7EA6E0;top=0;left=0;bottom=0;right=0;pointerEvents=1;fontSize=16;sketch=1;curveFitting=1;jiggle=2;" vertex="1" parent="m9OlPvplOpiL6TEW7GOy-188">
          <mxGeometry x="34" width="34" height="33" as="geometry">
            <mxRectangle width="34" height="33" as="alternateBounds" />
          </mxGeometry>
        </mxCell>
        <mxCell id="m9OlPvplOpiL6TEW7GOy-191" value="&lt;font style=&quot;font-size: 29px;&quot;&gt;=&lt;/font&gt;" style="text;html=1;align=center;verticalAlign=middle;whiteSpace=wrap;rounded=0;labelPosition=center;verticalLabelPosition=middle;" vertex="1" parent="1">
          <mxGeometry x="510" y="197.5" width="60" height="25" as="geometry" />
        </mxCell>
        <mxCell id="m9OlPvplOpiL6TEW7GOy-192" value="" style="shape=table;startSize=0;container=1;collapsible=0;childLayout=tableLayout;fontSize=16;movable=1;resizable=1;rotatable=1;deletable=1;editable=1;locked=0;connectable=1;" vertex="1" parent="1">
          <mxGeometry x="570" y="100" width="100" height="100" as="geometry" />
        </mxCell>
        <mxCell id="m9OlPvplOpiL6TEW7GOy-193" value="" style="shape=tableRow;horizontal=0;startSize=0;swimlaneHead=0;swimlaneBody=0;strokeColor=inherit;top=0;left=0;bottom=0;right=0;collapsible=0;dropTarget=0;fillColor=none;points=[[0,0.5],[1,0.5]];portConstraint=eastwest;fontSize=16;movable=1;resizable=1;rotatable=1;deletable=1;editable=1;locked=0;connectable=1;" vertex="1" parent="m9OlPvplOpiL6TEW7GOy-192">
          <mxGeometry width="100" height="33" as="geometry" />
        </mxCell>
        <mxCell id="m9OlPvplOpiL6TEW7GOy-194" value="1" style="shape=partialRectangle;html=1;whiteSpace=wrap;connectable=1;strokeColor=inherit;overflow=hidden;fillColor=#7EA6E0;top=0;left=0;bottom=0;right=0;pointerEvents=1;fontSize=16;sketch=1;curveFitting=1;jiggle=2;movable=1;resizable=1;rotatable=1;deletable=1;editable=1;locked=0;" vertex="1" parent="m9OlPvplOpiL6TEW7GOy-193">
          <mxGeometry width="33" height="33" as="geometry">
            <mxRectangle width="33" height="33" as="alternateBounds" />
          </mxGeometry>
        </mxCell>
        <mxCell id="m9OlPvplOpiL6TEW7GOy-195" value="2" style="shape=partialRectangle;html=1;whiteSpace=wrap;connectable=1;strokeColor=inherit;overflow=hidden;fillColor=#7EA6E0;top=0;left=0;bottom=0;right=0;pointerEvents=1;fontSize=16;labelBorderColor=none;sketch=1;curveFitting=1;jiggle=2;movable=1;resizable=1;rotatable=1;deletable=1;editable=1;locked=0;" vertex="1" parent="m9OlPvplOpiL6TEW7GOy-193">
          <mxGeometry x="33" width="34" height="33" as="geometry">
            <mxRectangle width="34" height="33" as="alternateBounds" />
          </mxGeometry>
        </mxCell>
        <mxCell id="m9OlPvplOpiL6TEW7GOy-196" value="3" style="shape=partialRectangle;html=1;whiteSpace=wrap;connectable=1;strokeColor=inherit;overflow=hidden;fillColor=none;top=0;left=0;bottom=0;right=0;pointerEvents=1;fontSize=16;movable=1;resizable=1;rotatable=1;deletable=1;editable=1;locked=0;" vertex="1" parent="m9OlPvplOpiL6TEW7GOy-193">
          <mxGeometry x="67" width="33" height="33" as="geometry">
            <mxRectangle width="33" height="33" as="alternateBounds" />
          </mxGeometry>
        </mxCell>
        <mxCell id="m9OlPvplOpiL6TEW7GOy-197" value="" style="shape=tableRow;horizontal=0;startSize=0;swimlaneHead=0;swimlaneBody=0;strokeColor=inherit;top=0;left=0;bottom=0;right=0;collapsible=0;dropTarget=0;fillColor=none;points=[[0,0.5],[1,0.5]];portConstraint=eastwest;fontSize=16;movable=1;resizable=1;rotatable=1;deletable=1;editable=1;locked=0;connectable=1;" vertex="1" parent="m9OlPvplOpiL6TEW7GOy-192">
          <mxGeometry y="33" width="100" height="34" as="geometry" />
        </mxCell>
        <mxCell id="m9OlPvplOpiL6TEW7GOy-198" value="4" style="shape=partialRectangle;html=1;whiteSpace=wrap;connectable=1;strokeColor=inherit;overflow=hidden;fillColor=#7EA6E0;top=0;left=0;bottom=0;right=0;pointerEvents=1;fontSize=16;sketch=1;curveFitting=1;jiggle=2;movable=1;resizable=1;rotatable=1;deletable=1;editable=1;locked=0;" vertex="1" parent="m9OlPvplOpiL6TEW7GOy-197">
          <mxGeometry width="33" height="34" as="geometry">
            <mxRectangle width="33" height="34" as="alternateBounds" />
          </mxGeometry>
        </mxCell>
        <mxCell id="m9OlPvplOpiL6TEW7GOy-199" value="5" style="shape=partialRectangle;html=1;whiteSpace=wrap;connectable=1;strokeColor=inherit;overflow=hidden;fillColor=#7EA6E0;top=0;left=0;bottom=0;right=0;pointerEvents=1;fontSize=16;sketch=1;curveFitting=1;jiggle=2;movable=1;resizable=1;rotatable=1;deletable=1;editable=1;locked=0;" vertex="1" parent="m9OlPvplOpiL6TEW7GOy-197">
          <mxGeometry x="33" width="34" height="34" as="geometry">
            <mxRectangle width="34" height="34" as="alternateBounds" />
          </mxGeometry>
        </mxCell>
        <mxCell id="m9OlPvplOpiL6TEW7GOy-200" value="6" style="shape=partialRectangle;html=1;whiteSpace=wrap;connectable=1;strokeColor=inherit;overflow=hidden;fillColor=none;top=0;left=0;bottom=0;right=0;pointerEvents=1;fontSize=16;movable=1;resizable=1;rotatable=1;deletable=1;editable=1;locked=0;" vertex="1" parent="m9OlPvplOpiL6TEW7GOy-197">
          <mxGeometry x="67" width="33" height="34" as="geometry">
            <mxRectangle width="33" height="34" as="alternateBounds" />
          </mxGeometry>
        </mxCell>
        <mxCell id="m9OlPvplOpiL6TEW7GOy-201" value="" style="shape=tableRow;horizontal=0;startSize=0;swimlaneHead=0;swimlaneBody=0;strokeColor=inherit;top=0;left=0;bottom=0;right=0;collapsible=0;dropTarget=0;fillColor=none;points=[[0,0.5],[1,0.5]];portConstraint=eastwest;fontSize=16;movable=1;resizable=1;rotatable=1;deletable=1;editable=1;locked=0;connectable=1;" vertex="1" parent="m9OlPvplOpiL6TEW7GOy-192">
          <mxGeometry y="67" width="100" height="33" as="geometry" />
        </mxCell>
        <mxCell id="m9OlPvplOpiL6TEW7GOy-202" value="7" style="shape=partialRectangle;html=1;whiteSpace=wrap;connectable=1;strokeColor=inherit;overflow=hidden;fillColor=none;top=0;left=0;bottom=0;right=0;pointerEvents=1;fontSize=16;movable=1;resizable=1;rotatable=1;deletable=1;editable=1;locked=0;" vertex="1" parent="m9OlPvplOpiL6TEW7GOy-201">
          <mxGeometry width="33" height="33" as="geometry">
            <mxRectangle width="33" height="33" as="alternateBounds" />
          </mxGeometry>
        </mxCell>
        <mxCell id="m9OlPvplOpiL6TEW7GOy-203" value="8" style="shape=partialRectangle;html=1;whiteSpace=wrap;connectable=1;strokeColor=inherit;overflow=hidden;fillColor=none;top=0;left=0;bottom=0;right=0;pointerEvents=1;fontSize=16;movable=1;resizable=1;rotatable=1;deletable=1;editable=1;locked=0;" vertex="1" parent="m9OlPvplOpiL6TEW7GOy-201">
          <mxGeometry x="33" width="34" height="33" as="geometry">
            <mxRectangle width="34" height="33" as="alternateBounds" />
          </mxGeometry>
        </mxCell>
        <mxCell id="m9OlPvplOpiL6TEW7GOy-204" value="9" style="shape=partialRectangle;html=1;whiteSpace=wrap;connectable=1;strokeColor=inherit;overflow=hidden;fillColor=none;top=0;left=0;bottom=0;right=0;pointerEvents=1;fontSize=16;movable=1;resizable=1;rotatable=1;deletable=1;editable=1;locked=0;" vertex="1" parent="m9OlPvplOpiL6TEW7GOy-201">
          <mxGeometry x="67" width="33" height="33" as="geometry">
            <mxRectangle width="33" height="33" as="alternateBounds" />
          </mxGeometry>
        </mxCell>
        <mxCell id="m9OlPvplOpiL6TEW7GOy-205" value="" style="shape=table;startSize=0;container=1;collapsible=0;childLayout=tableLayout;fontSize=16;movable=1;resizable=1;rotatable=1;deletable=1;editable=1;locked=0;connectable=1;" vertex="1" parent="1">
          <mxGeometry x="570" y="220" width="100" height="100" as="geometry" />
        </mxCell>
        <mxCell id="m9OlPvplOpiL6TEW7GOy-206" value="" style="shape=tableRow;horizontal=0;startSize=0;swimlaneHead=0;swimlaneBody=0;strokeColor=inherit;top=0;left=0;bottom=0;right=0;collapsible=0;dropTarget=0;fillColor=none;points=[[0,0.5],[1,0.5]];portConstraint=eastwest;fontSize=16;movable=1;resizable=1;rotatable=1;deletable=1;editable=1;locked=0;connectable=1;" vertex="1" parent="m9OlPvplOpiL6TEW7GOy-205">
          <mxGeometry width="100" height="33" as="geometry" />
        </mxCell>
        <mxCell id="m9OlPvplOpiL6TEW7GOy-207" value="0" style="shape=partialRectangle;html=1;whiteSpace=wrap;connectable=1;strokeColor=inherit;overflow=hidden;fillColor=#7EA6E0;top=0;left=0;bottom=0;right=0;pointerEvents=1;fontSize=16;sketch=1;curveFitting=1;jiggle=2;movable=1;resizable=1;rotatable=1;deletable=1;editable=1;locked=0;" vertex="1" parent="m9OlPvplOpiL6TEW7GOy-206">
          <mxGeometry width="33" height="33" as="geometry">
            <mxRectangle width="33" height="33" as="alternateBounds" />
          </mxGeometry>
        </mxCell>
        <mxCell id="m9OlPvplOpiL6TEW7GOy-208" value="1" style="shape=partialRectangle;html=1;whiteSpace=wrap;connectable=1;strokeColor=inherit;overflow=hidden;fillColor=#7EA6E0;top=0;left=0;bottom=0;right=0;pointerEvents=1;fontSize=16;labelBorderColor=none;sketch=1;curveFitting=1;jiggle=2;movable=1;resizable=1;rotatable=1;deletable=1;editable=1;locked=0;" vertex="1" parent="m9OlPvplOpiL6TEW7GOy-206">
          <mxGeometry x="33" width="34" height="33" as="geometry">
            <mxRectangle width="34" height="33" as="alternateBounds" />
          </mxGeometry>
        </mxCell>
        <mxCell id="m9OlPvplOpiL6TEW7GOy-209" value="2" style="shape=partialRectangle;html=1;whiteSpace=wrap;connectable=1;strokeColor=inherit;overflow=hidden;fillColor=none;top=0;left=0;bottom=0;right=0;pointerEvents=1;fontSize=16;movable=1;resizable=1;rotatable=1;deletable=1;editable=1;locked=0;" vertex="1" parent="m9OlPvplOpiL6TEW7GOy-206">
          <mxGeometry x="67" width="33" height="33" as="geometry">
            <mxRectangle width="33" height="33" as="alternateBounds" />
          </mxGeometry>
        </mxCell>
        <mxCell id="m9OlPvplOpiL6TEW7GOy-210" value="" style="shape=tableRow;horizontal=0;startSize=0;swimlaneHead=0;swimlaneBody=0;strokeColor=inherit;top=0;left=0;bottom=0;right=0;collapsible=0;dropTarget=0;fillColor=none;points=[[0,0.5],[1,0.5]];portConstraint=eastwest;fontSize=16;movable=1;resizable=1;rotatable=1;deletable=1;editable=1;locked=0;connectable=1;" vertex="1" parent="m9OlPvplOpiL6TEW7GOy-205">
          <mxGeometry y="33" width="100" height="34" as="geometry" />
        </mxCell>
        <mxCell id="m9OlPvplOpiL6TEW7GOy-211" value="3" style="shape=partialRectangle;html=1;whiteSpace=wrap;connectable=1;strokeColor=inherit;overflow=hidden;fillColor=#7EA6E0;top=0;left=0;bottom=0;right=0;pointerEvents=1;fontSize=16;sketch=1;curveFitting=1;jiggle=2;movable=1;resizable=1;rotatable=1;deletable=1;editable=1;locked=0;" vertex="1" parent="m9OlPvplOpiL6TEW7GOy-210">
          <mxGeometry width="33" height="34" as="geometry">
            <mxRectangle width="33" height="34" as="alternateBounds" />
          </mxGeometry>
        </mxCell>
        <mxCell id="m9OlPvplOpiL6TEW7GOy-212" value="4" style="shape=partialRectangle;html=1;whiteSpace=wrap;connectable=1;strokeColor=inherit;overflow=hidden;fillColor=#7EA6E0;top=0;left=0;bottom=0;right=0;pointerEvents=1;fontSize=16;sketch=1;curveFitting=1;jiggle=2;movable=1;resizable=1;rotatable=1;deletable=1;editable=1;locked=0;" vertex="1" parent="m9OlPvplOpiL6TEW7GOy-210">
          <mxGeometry x="33" width="34" height="34" as="geometry">
            <mxRectangle width="34" height="34" as="alternateBounds" />
          </mxGeometry>
        </mxCell>
        <mxCell id="m9OlPvplOpiL6TEW7GOy-213" value="5" style="shape=partialRectangle;html=1;whiteSpace=wrap;connectable=1;strokeColor=inherit;overflow=hidden;fillColor=none;top=0;left=0;bottom=0;right=0;pointerEvents=1;fontSize=16;movable=1;resizable=1;rotatable=1;deletable=1;editable=1;locked=0;" vertex="1" parent="m9OlPvplOpiL6TEW7GOy-210">
          <mxGeometry x="67" width="33" height="34" as="geometry">
            <mxRectangle width="33" height="34" as="alternateBounds" />
          </mxGeometry>
        </mxCell>
        <mxCell id="m9OlPvplOpiL6TEW7GOy-214" value="" style="shape=tableRow;horizontal=0;startSize=0;swimlaneHead=0;swimlaneBody=0;strokeColor=inherit;top=0;left=0;bottom=0;right=0;collapsible=0;dropTarget=0;fillColor=none;points=[[0,0.5],[1,0.5]];portConstraint=eastwest;fontSize=16;movable=1;resizable=1;rotatable=1;deletable=1;editable=1;locked=0;connectable=1;" vertex="1" parent="m9OlPvplOpiL6TEW7GOy-205">
          <mxGeometry y="67" width="100" height="33" as="geometry" />
        </mxCell>
        <mxCell id="m9OlPvplOpiL6TEW7GOy-215" value="6" style="shape=partialRectangle;html=1;whiteSpace=wrap;connectable=1;strokeColor=inherit;overflow=hidden;fillColor=none;top=0;left=0;bottom=0;right=0;pointerEvents=1;fontSize=16;movable=1;resizable=1;rotatable=1;deletable=1;editable=1;locked=0;" vertex="1" parent="m9OlPvplOpiL6TEW7GOy-214">
          <mxGeometry width="33" height="33" as="geometry">
            <mxRectangle width="33" height="33" as="alternateBounds" />
          </mxGeometry>
        </mxCell>
        <mxCell id="m9OlPvplOpiL6TEW7GOy-216" value="7" style="shape=partialRectangle;html=1;whiteSpace=wrap;connectable=1;strokeColor=inherit;overflow=hidden;fillColor=none;top=0;left=0;bottom=0;right=0;pointerEvents=1;fontSize=16;movable=1;resizable=1;rotatable=1;deletable=1;editable=1;locked=0;" vertex="1" parent="m9OlPvplOpiL6TEW7GOy-214">
          <mxGeometry x="33" width="34" height="33" as="geometry">
            <mxRectangle width="34" height="33" as="alternateBounds" />
          </mxGeometry>
        </mxCell>
        <mxCell id="m9OlPvplOpiL6TEW7GOy-217" value="8" style="shape=partialRectangle;html=1;whiteSpace=wrap;connectable=1;strokeColor=inherit;overflow=hidden;fillColor=none;top=0;left=0;bottom=0;right=0;pointerEvents=1;fontSize=16;movable=1;resizable=1;rotatable=1;deletable=1;editable=1;locked=0;" vertex="1" parent="m9OlPvplOpiL6TEW7GOy-214">
          <mxGeometry x="67" width="33" height="33" as="geometry">
            <mxRectangle width="33" height="33" as="alternateBounds" />
          </mxGeometry>
        </mxCell>
        <mxCell id="m9OlPvplOpiL6TEW7GOy-218" value="" style="shape=table;startSize=0;container=1;collapsible=0;childLayout=tableLayout;fontSize=16;" vertex="1" parent="1">
          <mxGeometry x="720" y="117" width="68" height="66" as="geometry" />
        </mxCell>
        <mxCell id="m9OlPvplOpiL6TEW7GOy-219" value="" style="shape=tableRow;horizontal=0;startSize=0;swimlaneHead=0;swimlaneBody=0;strokeColor=inherit;top=0;left=0;bottom=0;right=0;collapsible=0;dropTarget=0;fillColor=none;points=[[0,0.5],[1,0.5]];portConstraint=eastwest;fontSize=16;" vertex="1" parent="m9OlPvplOpiL6TEW7GOy-218">
          <mxGeometry width="68" height="33" as="geometry" />
        </mxCell>
        <mxCell id="m9OlPvplOpiL6TEW7GOy-220" value="1" style="shape=partialRectangle;html=1;whiteSpace=wrap;connectable=0;strokeColor=inherit;overflow=hidden;fillColor=#7EA6E0;top=0;left=0;bottom=0;right=0;pointerEvents=1;fontSize=16;sketch=1;curveFitting=1;jiggle=2;" vertex="1" parent="m9OlPvplOpiL6TEW7GOy-219">
          <mxGeometry width="34" height="33" as="geometry">
            <mxRectangle width="34" height="33" as="alternateBounds" />
          </mxGeometry>
        </mxCell>
        <mxCell id="m9OlPvplOpiL6TEW7GOy-221" value="2" style="shape=partialRectangle;html=1;whiteSpace=wrap;connectable=0;strokeColor=inherit;overflow=hidden;fillColor=#7EA6E0;top=0;left=0;bottom=0;right=0;pointerEvents=1;fontSize=16;sketch=1;curveFitting=1;jiggle=2;" vertex="1" parent="m9OlPvplOpiL6TEW7GOy-219">
          <mxGeometry x="34" width="34" height="33" as="geometry">
            <mxRectangle width="34" height="33" as="alternateBounds" />
          </mxGeometry>
        </mxCell>
        <mxCell id="m9OlPvplOpiL6TEW7GOy-222" value="" style="shape=tableRow;horizontal=0;startSize=0;swimlaneHead=0;swimlaneBody=0;strokeColor=inherit;top=0;left=0;bottom=0;right=0;collapsible=0;dropTarget=0;fillColor=none;points=[[0,0.5],[1,0.5]];portConstraint=eastwest;fontSize=16;" vertex="1" parent="m9OlPvplOpiL6TEW7GOy-218">
          <mxGeometry y="33" width="68" height="33" as="geometry" />
        </mxCell>
        <mxCell id="m9OlPvplOpiL6TEW7GOy-223" value="3" style="shape=partialRectangle;html=1;whiteSpace=wrap;connectable=0;strokeColor=inherit;overflow=hidden;fillColor=#7EA6E0;top=0;left=0;bottom=0;right=0;pointerEvents=1;fontSize=16;sketch=1;curveFitting=1;jiggle=2;" vertex="1" parent="m9OlPvplOpiL6TEW7GOy-222">
          <mxGeometry width="34" height="33" as="geometry">
            <mxRectangle width="34" height="33" as="alternateBounds" />
          </mxGeometry>
        </mxCell>
        <mxCell id="m9OlPvplOpiL6TEW7GOy-224" value="4" style="shape=partialRectangle;html=1;whiteSpace=wrap;connectable=0;strokeColor=inherit;overflow=hidden;fillColor=#7EA6E0;top=0;left=0;bottom=0;right=0;pointerEvents=1;fontSize=16;sketch=1;curveFitting=1;jiggle=2;" vertex="1" parent="m9OlPvplOpiL6TEW7GOy-222">
          <mxGeometry x="34" width="34" height="33" as="geometry">
            <mxRectangle width="34" height="33" as="alternateBounds" />
          </mxGeometry>
        </mxCell>
        <mxCell id="m9OlPvplOpiL6TEW7GOy-225" value="" style="shape=table;startSize=0;container=1;collapsible=0;childLayout=tableLayout;fontSize=16;" vertex="1" parent="1">
          <mxGeometry x="720" y="236" width="68" height="66" as="geometry" />
        </mxCell>
        <mxCell id="m9OlPvplOpiL6TEW7GOy-226" value="" style="shape=tableRow;horizontal=0;startSize=0;swimlaneHead=0;swimlaneBody=0;strokeColor=inherit;top=0;left=0;bottom=0;right=0;collapsible=0;dropTarget=0;fillColor=none;points=[[0,0.5],[1,0.5]];portConstraint=eastwest;fontSize=16;" vertex="1" parent="m9OlPvplOpiL6TEW7GOy-225">
          <mxGeometry width="68" height="33" as="geometry" />
        </mxCell>
        <mxCell id="m9OlPvplOpiL6TEW7GOy-227" value="0" style="shape=partialRectangle;html=1;whiteSpace=wrap;connectable=0;strokeColor=inherit;overflow=hidden;fillColor=#7EA6E0;top=0;left=0;bottom=0;right=0;pointerEvents=1;fontSize=16;sketch=1;curveFitting=1;jiggle=2;" vertex="1" parent="m9OlPvplOpiL6TEW7GOy-226">
          <mxGeometry width="34" height="33" as="geometry">
            <mxRectangle width="34" height="33" as="alternateBounds" />
          </mxGeometry>
        </mxCell>
        <mxCell id="m9OlPvplOpiL6TEW7GOy-228" value="1" style="shape=partialRectangle;html=1;whiteSpace=wrap;connectable=0;strokeColor=inherit;overflow=hidden;fillColor=#7EA6E0;top=0;left=0;bottom=0;right=0;pointerEvents=1;fontSize=16;sketch=1;curveFitting=1;jiggle=2;" vertex="1" parent="m9OlPvplOpiL6TEW7GOy-226">
          <mxGeometry x="34" width="34" height="33" as="geometry">
            <mxRectangle width="34" height="33" as="alternateBounds" />
          </mxGeometry>
        </mxCell>
        <mxCell id="m9OlPvplOpiL6TEW7GOy-229" value="" style="shape=tableRow;horizontal=0;startSize=0;swimlaneHead=0;swimlaneBody=0;strokeColor=inherit;top=0;left=0;bottom=0;right=0;collapsible=0;dropTarget=0;fillColor=none;points=[[0,0.5],[1,0.5]];portConstraint=eastwest;fontSize=16;" vertex="1" parent="m9OlPvplOpiL6TEW7GOy-225">
          <mxGeometry y="33" width="68" height="33" as="geometry" />
        </mxCell>
        <mxCell id="m9OlPvplOpiL6TEW7GOy-230" value="2" style="shape=partialRectangle;html=1;whiteSpace=wrap;connectable=0;strokeColor=inherit;overflow=hidden;fillColor=#7EA6E0;top=0;left=0;bottom=0;right=0;pointerEvents=1;fontSize=16;sketch=1;curveFitting=1;jiggle=2;" vertex="1" parent="m9OlPvplOpiL6TEW7GOy-229">
          <mxGeometry width="34" height="33" as="geometry">
            <mxRectangle width="34" height="33" as="alternateBounds" />
          </mxGeometry>
        </mxCell>
        <mxCell id="m9OlPvplOpiL6TEW7GOy-231" value="3" style="shape=partialRectangle;html=1;whiteSpace=wrap;connectable=0;strokeColor=inherit;overflow=hidden;fillColor=#7EA6E0;top=0;left=0;bottom=0;right=0;pointerEvents=1;fontSize=16;sketch=1;curveFitting=1;jiggle=2;" vertex="1" parent="m9OlPvplOpiL6TEW7GOy-229">
          <mxGeometry x="34" width="34" height="33" as="geometry">
            <mxRectangle width="34" height="33" as="alternateBounds" />
          </mxGeometry>
        </mxCell>
        <mxCell id="m9OlPvplOpiL6TEW7GOy-232" value="&lt;font style=&quot;font-size: 29px;&quot;&gt;Ã—&lt;/font&gt;" style="text;html=1;align=center;verticalAlign=middle;whiteSpace=wrap;rounded=0;labelPosition=center;verticalLabelPosition=middle;" vertex="1" parent="1">
          <mxGeometry x="670" y="132.5" width="50" height="35" as="geometry" />
        </mxCell>
        <mxCell id="m9OlPvplOpiL6TEW7GOy-233" value="&lt;font style=&quot;font-size: 29px;&quot;&gt;Ã—&lt;/font&gt;" style="text;html=1;align=center;verticalAlign=middle;whiteSpace=wrap;rounded=0;labelPosition=center;verticalLabelPosition=middle;" vertex="1" parent="1">
          <mxGeometry x="670" y="252.5" width="50" height="35" as="geometry" />
        </mxCell>
        <mxCell id="m9OlPvplOpiL6TEW7GOy-234" value="&lt;font style=&quot;font-size: 29px;&quot;&gt;+&lt;/font&gt;" style="text;html=1;align=center;verticalAlign=middle;whiteSpace=wrap;rounded=0;labelPosition=center;verticalLabelPosition=middle;" vertex="1" parent="1">
          <mxGeometry x="729" y="192.5" width="50" height="35" as="geometry" />
        </mxCell>
        <mxCell id="m9OlPvplOpiL6TEW7GOy-235" value="" style="shape=table;startSize=0;container=1;collapsible=0;childLayout=tableLayout;fontSize=16;fillColor=none;" vertex="1" parent="1">
          <mxGeometry x="840" y="177" width="68" height="66" as="geometry" />
        </mxCell>
        <mxCell id="m9OlPvplOpiL6TEW7GOy-236" value="" style="shape=tableRow;horizontal=0;startSize=0;swimlaneHead=0;swimlaneBody=0;strokeColor=inherit;top=0;left=0;bottom=0;right=0;collapsible=0;dropTarget=0;fillColor=none;points=[[0,0.5],[1,0.5]];portConstraint=eastwest;fontSize=16;" vertex="1" parent="m9OlPvplOpiL6TEW7GOy-235">
          <mxGeometry width="68" height="33" as="geometry" />
        </mxCell>
        <mxCell id="m9OlPvplOpiL6TEW7GOy-237" value="56" style="shape=partialRectangle;html=1;whiteSpace=wrap;connectable=0;overflow=hidden;top=0;left=0;bottom=0;right=0;pointerEvents=1;fontSize=16;sketch=1;curveFitting=1;jiggle=2;fillColor=#7EA6E0;" vertex="1" parent="m9OlPvplOpiL6TEW7GOy-236">
          <mxGeometry width="34" height="33" as="geometry">
            <mxRectangle width="34" height="33" as="alternateBounds" />
          </mxGeometry>
        </mxCell>
        <mxCell id="m9OlPvplOpiL6TEW7GOy-238" value="72" style="shape=partialRectangle;html=1;whiteSpace=wrap;connectable=0;overflow=hidden;top=0;left=0;bottom=0;right=0;pointerEvents=1;fontSize=16;sketch=1;curveFitting=1;jiggle=2;fillColor=none;" vertex="1" parent="m9OlPvplOpiL6TEW7GOy-236">
          <mxGeometry x="34" width="34" height="33" as="geometry">
            <mxRectangle width="34" height="33" as="alternateBounds" />
          </mxGeometry>
        </mxCell>
        <mxCell id="m9OlPvplOpiL6TEW7GOy-239" value="" style="shape=tableRow;horizontal=0;startSize=0;swimlaneHead=0;swimlaneBody=0;strokeColor=inherit;top=0;left=0;bottom=0;right=0;collapsible=0;dropTarget=0;fillColor=none;points=[[0,0.5],[1,0.5]];portConstraint=eastwest;fontSize=16;" vertex="1" parent="m9OlPvplOpiL6TEW7GOy-235">
          <mxGeometry y="33" width="68" height="33" as="geometry" />
        </mxCell>
        <mxCell id="m9OlPvplOpiL6TEW7GOy-240" value="104" style="shape=partialRectangle;html=1;whiteSpace=wrap;connectable=0;overflow=hidden;top=0;left=0;bottom=0;right=0;pointerEvents=1;fontSize=16;sketch=1;curveFitting=1;jiggle=2;fillColor=none;" vertex="1" parent="m9OlPvplOpiL6TEW7GOy-239">
          <mxGeometry width="34" height="33" as="geometry">
            <mxRectangle width="34" height="33" as="alternateBounds" />
          </mxGeometry>
        </mxCell>
        <mxCell id="m9OlPvplOpiL6TEW7GOy-241" value="120" style="shape=partialRectangle;html=1;whiteSpace=wrap;connectable=0;overflow=hidden;top=0;left=0;bottom=0;right=0;pointerEvents=1;fontSize=16;sketch=1;curveFitting=1;jiggle=2;fillColor=none;" vertex="1" parent="m9OlPvplOpiL6TEW7GOy-239">
          <mxGeometry x="34" width="34" height="33" as="geometry">
            <mxRectangle width="34" height="33" as="alternateBounds" />
          </mxGeometry>
        </mxCell>
        <mxCell id="m9OlPvplOpiL6TEW7GOy-242" value="&lt;font style=&quot;font-size: 29px;&quot;&gt;=&lt;/font&gt;" style="text;html=1;align=center;verticalAlign=middle;whiteSpace=wrap;rounded=0;labelPosition=center;verticalLabelPosition=middle;" vertex="1" parent="1">
          <mxGeometry x="791" y="197.5" width="52" height="25" as="geometry" />
        </mxCell>
        <mxCell id="m9OlPvplOpiL6TEW7GOy-243" value="&lt;font style=&quot;font-size: 21px;&quot;&gt;Input&lt;/font&gt;" style="text;html=1;align=center;verticalAlign=middle;whiteSpace=wrap;rounded=0;labelPosition=center;verticalLabelPosition=middle;" vertex="1" parent="1">
          <mxGeometry x="240" y="50" width="60" height="25" as="geometry" />
        </mxCell>
        <mxCell id="m9OlPvplOpiL6TEW7GOy-244" value="&lt;font style=&quot;font-size: 21px;&quot;&gt;Kernel&lt;/font&gt;" style="text;html=1;align=center;verticalAlign=middle;whiteSpace=wrap;rounded=0;labelPosition=center;verticalLabelPosition=middle;" vertex="1" parent="1">
          <mxGeometry x="410" y="50" width="80" height="25" as="geometry" />
        </mxCell>
        <mxCell id="m9OlPvplOpiL6TEW7GOy-245" value="&lt;font style=&quot;font-size: 21px;&quot;&gt;Input&lt;/font&gt;&lt;span style=&quot;color: rgba(0, 0, 0, 0); font-family: monospace; font-size: 0px; text-align: start; text-wrap: nowrap;&quot;&gt;%3CmxGraphModel%3E%3Croot%3E%3CmxCell%20id%3D%220%22%2F%3E%3CmxCell%20id%3D%221%22%20parent%3D%220%22%2F%3E%3CmxCell%20id%3D%222%22%20value%3D%22%26lt%3Bfont%20style%3D%26quot%3Bfont-size%3A%2021px%3B%26quot%3B%26gt%3BKernel%26lt%3B%2Ffont%26gt%3B%22%20style%3D%22text%3Bhtml%3D1%3Balign%3Dcenter%3BverticalAlign%3Dmiddle%3BwhiteSpace%3Dwrap%3Brounded%3D0%3BlabelPosition%3Dcenter%3BverticalLabelPosition%3Dmiddle%3B%22%20vertex%3D%221%22%20parent%3D%221%22%3E%3CmxGeometry%20x%3D%22410%22%20y%3D%2250%22%20width%3D%2280%22%20height%3D%2225%22%20as%3D%22geometry%22%2F%3E%3C%2FmxCell%3E%3C%2Froot%3E%3C%2FmxGraphModel%3E&lt;/span&gt;" style="text;html=1;align=center;verticalAlign=middle;whiteSpace=wrap;rounded=0;labelPosition=center;verticalLabelPosition=middle;" vertex="1" parent="1">
          <mxGeometry x="580" y="50" width="80" height="25" as="geometry" />
        </mxCell>
        <mxCell id="m9OlPvplOpiL6TEW7GOy-246" value="&lt;font style=&quot;font-size: 21px;&quot;&gt;Kernel&lt;/font&gt;" style="text;html=1;align=center;verticalAlign=middle;whiteSpace=wrap;rounded=0;labelPosition=center;verticalLabelPosition=middle;" vertex="1" parent="1">
          <mxGeometry x="714" y="50" width="80" height="25" as="geometry" />
        </mxCell>
        <mxCell id="m9OlPvplOpiL6TEW7GOy-247" value="&lt;font style=&quot;font-size: 21px;&quot;&gt;Output&lt;/font&gt;" style="text;html=1;align=center;verticalAlign=middle;whiteSpace=wrap;rounded=0;labelPosition=center;verticalLabelPosition=middle;" vertex="1" parent="1">
          <mxGeometry x="834" y="50" width="80" height="25" as="geometry" />
        </mxCell>
      </root>
    </mxGraphModel>
  </diagram>
</mxfile>
